# xmcd
#
# Track frame offsets:
#	150
#	13547
#	29275
#	45318
#	61079
#	75441
#	91031
#	104554
#	121294
#	136603
#	150590
#	167129
#	182028
#	193112
#	208798
#	213515
#	218215
#	222921
#	227616
#	232299
#	236998
#	241702
#	246405
#	251073
#	255755
#	260466
#	265139
#	269850
#	274556
#	276992
#	279464
#	281909
#	284364
#	286819
#	289270
#	291731
#	294197
#	296659
#	299108
#	301562
#	303966
#	306429
#	308874
#
# Disc length: 4149 seconds
#
# Revision: 0
# Processed by: cddbd v1.5.2PL0 Copyright (c) Steve Scherf et al.
# Submitted via: EasyCDDAExtractor 10.0.5.1
#
DISCID=a310332b
DTITLE=simon di - fonkability
DYEAR=2001
DGENRE=Funk
TTITLE0=jam
TTITLE1=phat fly
TTITLE2=fonkability
TTITLE3=alabama
TTITLE4=good time
TTITLE5=fonkadikt
TTITLE6=crossfonk
TTITLE7=laid black
TTITLE8=queen of the night
TTITLE9=shift
TTITLE10=selfish love
TTITLE11=rocky fonky
TTITLE12=fonk da town
TTITLE13=undernet wish
TTITLE14=jam
TTITLE15=phat fly
TTITLE16=fonkability
TTITLE17=alabama
TTITLE18=good time
TTITLE19=fonkadikt
TTITLE20=crossfonk
TTITLE21=laid black
TTITLE22=queen of the night
TTITLE23=shift
TTITLE24=selfisch love
TTITLE25=rocky fonky
TTITLE26=fonk da town
TTITLE27=undernet wish
TTITLE28=jam
TTITLE29=phat fly
TTITLE30=fonkability
TTITLE31=alabama
TTITLE32=good time
TTITLE33=fonkadikt
TTITLE34=fonkadikt
TTITLE35=crossfonk
TTITLE36=laid black
TTITLE37=queen of the night
TTITLE38=shift
TTITLE39=selfisch love
TTITLE40=rocky fonky
TTITLE41=fonk da town
TTITLE42=undernet wish
EXTD=
EXTT0=
EXTT1=
EXTT2=
EXTT3=
EXTT4=
EXTT5=
EXTT6=
EXTT7=
EXTT8=
EXTT9=
EXTT10=
EXTT11=
EXTT12=
EXTT13=
EXTT14=
EXTT15=
EXTT16=
EXTT17=
EXTT18=
EXTT19=
EXTT20=
EXTT21=
EXTT22=
EXTT23=
EXTT24=
EXTT25=
EXTT26=
EXTT27=
EXTT28=
EXTT29=
EXTT30=
EXTT31=
EXTT32=
EXTT33=
EXTT34=
EXTT35=
EXTT36=
EXTT37=
EXTT38=
EXTT39=
EXTT40=
EXTT41=
EXTT42=
PLAYORDER=
